:FULLY-SPECIFIED
:FORCE-ALL-JOINTS-BE-3DOF
:DEGREES
713
root 5.48551 21.4492 7.68089 -125.688 -88.1779 142.102
lfemur -34.0581 -13.7705 9.02164
ltibia 66.7227 -0 0
lfoot 7.48582 -9.29827 0.00247204
ltoes 29.8742 -0 0
rfemur -33.166 -1.47985 -1.54027
rtibia 94.7275 -0 0
rfoot 21.0602 -20.0622 -0.0619124
rtoes 41.8952 -0 0
lowerback 5.91653 -0.649935 -1.7935
upperback -1.33661 -1.09231 -1.5918
thorax -4.7035 -0.521183 -0.538743
lowerneck -6.86828 -6.40624 -2.37194
upperneck -0.316084 -8.50856 4.90989
head 1.40279 -4.19063 1.64973
lclavicle 1.19636e-14 3.16434e-14 -5.17926e-32
lhumerus -0.9348 -20.4409 16.5924
lradius 45.583 -0 0
lwrist 22.7276 0 0
lhand -22.205 -3.42944 -0.00035421
lfingers 7.12502 -0 0
lthumb 4.21076 26.5086 -0.000343334
rclavicle 1.19636e-14 3.16434e-14 -5.17926e-32
rhumerus -11.498 -2.08368 -27.3094
rradius 99.3031 -0 0
rwrist -9.89912 0 0
rhand -26.7458 -34.1048 0.0121313
rfingers 7.12502 -0 0
rthumb -0.174551 -64.0816 0.0115204
714
root 5.48956 21.5087 7.76626 -137.856 -87.4734 154.285
lfemur -33.6874 -14.3041 8.65018
ltibia 65.5373 -0 0
lfoot 7.44768 -9.40496 0.00065134
ltoes 29.8442 -0 0
rfemur -33.6621 -1.55878 -1.8211
rtibia 96.4217 -0 0
rfoot 21.2852 -20.508 -0.0163093
rtoes 42.6632 -0 0
lowerback 5.97589 -0.578351 -1.77981
upperback -1.32712 -0.996549 -1.57396
thorax -4.72723 -0.473206 -0.53269
lowerneck -6.87882 -6.44001 -2.41724
upperneck -0.403357 -8.54611 4.90239
head 1.37894 -4.21128 1.65381
lclavicle 1.26735e-14 3.17636e-14 -1.36467e-32
lhumerus -1.55494 -20.2925 16.6154
lradius 44.8927 -0 0
lwrist 22.5871 0 0
lhand -22.2155 -3.37355 -9.33274e-05
lfingers 7.12502 -0 0
lthumb 4.20068 26.5647 -9.04619e-05
rclavicle 1.26735e-14 3.17636e-14 -1.36467e-32
rhumerus -11.0213 -1.9061 -27.4924
rradius 99.2684 -0 0
rwrist -9.87736 0 0
rhand -26.6041 -33.9641 0.0031963
rfingers 7.12502 -0 0
rthumb -0.0376887 -63.9432 0.00303536
715
root 5.49097 21.5295 7.79601 -140.605 -87.2103 157.04
lfemur -33.5571 -14.4896 8.51967
ltibia 65.1241 0 0
lfoot 7.43438 -9.44215 0
ltoes 29.8338 0 0
rfemur -33.8349 -1.58686 -1.91882
rtibia 97.0122 0 0
rfoot 21.3635 -20.6634 0
rtoes 42.9309 0 0
lowerback 5.99658 -0.553404 -1.77502
upperback -1.3238 -0.963173 -1.56773
thorax -4.7355 -0.456483 -0.530585
lowerneck -6.88249 -6.45178 -2.43303
upperneck -0.433777 -8.5592 4.89979
head 1.37063 -4.21848 1.65523
lclavicle 1.2921e-14 3.18055e-14 0
lhumerus -1.77093 -20.2407 16.623
lradius 44.6521 0 0
lwrist 22.5382 0 0
lhand -22.2191 -3.35407 0
lfingers 7.12502 0 0
lthumb 4.19717 26.5843 0
rclavicle 1.2921e-14 3.18055e-14 0
rhumerus -10.8552 -1.84384 -27.5558
rradius 99.2563 0 0
rwrist -9.86977 0 0
rhand -26.5547 -33.9151 0
rfingers 7.12502 0 0
rthumb 0.0100137 -783.895 0
716
root 5.48494 21.5119 7.82546 -143.782 -86.8952 160.269
lfemur -33.4745 -14.5081 8.44797
ltibia 64.7965 -0 0
lfoot 7.4487 -9.47369 -0.000594892
ltoes 29.7635 -0 0
rfemur -33.7987 -1.76927 -1.94616
rtibia 97.2039 -0 0
rfoot 21.4368 -20.4777 0.0183441
rtoes 42.8464 -0 0
lowerback 5.95663 -0.502934 -1.75106
upperback -1.33335 -0.892962 -1.56552
thorax -4.71983 -0.422178 -0.543515
lowerneck -6.89032 -6.45921 -2.42605
upperneck -0.442408 -8.56934 4.8881
head 1.36845 -4.224 1.6499
lclavicle 1.31482e-14 3.12425e-14 1.68338e-31
lhumerus -2.1049 -20.3135 16.8104
lradius 44.6795 -0 0
lwrist 22.525 0 0
lhand -22.2175 -3.35949 -1.14417e-05
lfingers 7.12502 -0 0
lthumb 4.19872 26.5789 -1.11148e-05
rclavicle 1.31482e-14 3.12425e-14 1.68338e-31
rhumerus -10.5551 -1.80922 -27.6852
rradius 99.201 -0 0
rwrist -9.85726 0 0
rhand -26.5758 -33.896 -0.000531243
rfingers 7.12502 -0 0
rthumb -0.0104102 -63.8758 -0.000517121
717
root 5.46766 21.4615 7.90994 -150.053 -85.9539 166.691
lfemur -33.2373 -14.5605 8.24209
ltibia 63.8565 -0 0
lfoot 7.48978 -9.56418 -0.00225784
ltoes 29.5619 -0 0
rfemur -33.6942 -2.29239 -2.02523
rtibia 97.7539 -0 0
rfoot 21.6474 -19.9448 0.0696533
rtoes 42.6039 -0 0
lowerback 5.84215 -0.358055 -1.68252
upperback -1.36073 -0.69154 -1.55926
thorax -4.67493 -0.323744 -0.580558
lowerneck -6.91277 -6.4805 -2.40603
upperneck -0.467161 -8.59845 4.85456
head 1.36218 -4.23985 1.6346
lclavicle 1.37999e-14 2.96273e-14 6.38887e-31
lhumerus -3.0654 -20.5167 17.351
lradius 44.758 -0 0
lwrist 22.4873 0 0
lhand -22.2129 -3.37502 -4.34242e-05
lfingers 7.12502 -0 0
lthumb 4.20317 26.5632 -4.21837e-05
rclavicle 1.37999e-14 2.96273e-14 6.38887e-31
rhumerus -9.6945 -1.70612 -28.0553
rradius 99.0425 -0 0
rwrist -9.82138 0 0
rhand -26.6365 -33.8413 -0.0020163
rfingers 7.12502 -0 0
rthumb -0.0690068 -63.8206 -0.0019627
718
root 5.44028 21.3817 8.04366 -155.51 -84.4074 172.385
lfemur -32.8614 -14.6417 7.91568
ltibia 62.3684 -0 0
lfoot 7.55482 -9.70741 -0.00475747
ltoes 29.2427 -0 0
rfemur -33.5272 -3.12034 -2.15245
rtibia 98.6247 -0 0
rfoot 21.9817 -19.1009 0.146853
rtoes 42.2201 -0 0
lowerback 5.66131 -0.128457 -1.57462
upperback -1.40402 -0.37272 -1.54955
thorax -4.60399 -0.167879 -0.639032
lowerneck -6.94833 -6.5142 -2.37432
upperneck -0.50631 -8.64454 4.80148
head 1.35227 -4.26494 1.61039
lclavicle 1.48315e-14 2.70706e-14 1.34614e-30
lhumerus -4.5925 -20.8208 18.2156
lradius 44.8822 -0 0
lwrist 22.4275 0 0
lhand -22.2056 -3.39962 -9.14955e-05
lfingers 7.12502 -0 0
lthumb 4.21021 26.5385 -8.88818e-05
rclavicle 1.48315e-14 2.70706e-14 1.34614e-30
rhumerus -8.33368 -1.53161 -28.6378
rradius 98.7915 -0 0
rwrist -9.76459 0 0
rhand -26.7326 -33.7547 -0.00424856
rfingers 7.12502 -0 0
rthumb -0.161764 -63.7333 -0.00413561
719
root 5.40399 21.2759 8.22083 -159.241 -82.3155 176.431
lfemur -32.3624 -14.7462 7.4822
ltibia 60.397 -0 0
lfoot 7.64099 -9.89719 -0.00781888
ltoes 28.8198 -0 0
rfemur -33.3028 -4.21671 -2.32491
rtibia 99.7785 -0 0
rfoot 22.4264 -17.982 0.241546
rtoes 41.7116 -0 0
lowerback 5.42238 0.176256 -1.43278
upperback -1.4613 0.049693 -1.53704
thorax -4.51026 0.0387149 -0.716198
lowerneck -6.99548 -6.55881 -2.33227
upperneck -0.558121 -8.70568 4.73121
head 1.33916 -4.29819 1.57832
lclavicle 1.61982e-14 2.36833e-14 2.2123e-30
lhumerus -6.62749 -21.1903 19.3763
lradius 45.0469 -0 0
lwrist 22.3483 0 0
lhand -22.1959 -3.4322 -0.000150367
lfingers 7.12502 -0 0
lthumb 4.21953 26.5057 -0.000146072
rclavicle 1.61982e-14 2.36833e-14 2.2123e-30
rhumerus -6.53384 -1.27921 -29.4029
rradius 98.4589 -0 0
rwrist -9.68934 0 0
rhand -26.8598 -33.6399 -0.00698254
rfingers 7.12502 -0 0
rthumb -0.284667 -63.6176 -0.0067969
720
root 5.35997 21.1477 8.43566 -161.624 -79.7532 179.197
lfemur -31.7558 -14.8679 6.95495
ltibia 58.0066 -0 0
lfoot 7.7455 -10.1273 -0.0111481
ltoes 28.3071 -0 0
rfemur -33.0259 -5.5451 -2.54018
rtibia 101.177 -0 0
rfoot 22.9679 -16.6245 0.34468
rtoes 41.0951 -0 0
lowerback 5.13367 0.546519 -1.2625
upperback -1.53063 0.5619 -1.52245
thorax -4.39697 0.289413 -0.809323
lowerneck -7.0527 -6.61286 -2.28123
upperneck -0.620853 -8.77989 4.64605
head 1.32329 -4.33851 1.53944
lclavicle 1.78555e-14 1.9576e-14 3.15415e-30
lhumerus -9.11163 -21.5861 20.8053
lradius 45.2466 -0 0
lwrist 22.2522 0 0
lhand -22.1842 -3.47171 -0.000214384
lfingers 7.12502 -0 0
lthumb 4.23084 26.466 -0.00020826
rclavicle 1.78555e-14 1.9576e-14 3.15415e-30
rhumerus -4.35646 -0.941189 -30.3192
rradius 98.0557 -0 0
rwrist -9.5981 0 0
rhand -27.0141 -33.5007 -0.00995569
rfingers 7.12502 -0 0
rthumb -0.433704 -63.4773 -0.00969099
721
root 5.30938 21.0005 8.68236 -163.125 -76.7963 -178.859
lfemur -31.0575 -15.001 6.34762
ltibia 55.2617 -0 0
lfoot 7.86552 -10.3916 -0.0144533
ltoes 27.7183 -0 0
rfemur -32.7008 -7.0692 -2.79604
rtibia 102.784 -0 0
rfoot 23.5925 -15.0644 0.447241
rtoes 40.3869 -0 0
lowerback 4.80346 0.972755 -1.06924
upperback -1.61009 1.15011 -1.50646
thorax -4.26737 0.577525 -0.915653
lowerneck -7.11847 -6.67486 -2.22254
upperneck -0.692769 -8.86522 4.54835
head 1.30509 -4.38482 1.4948
lclavicle 1.97585e-14 1.48595e-14 4.08916e-30
lhumerus -11.9841 -21.9687 22.4716
lradius 45.4758 -0 0
lwrist 22.142 0 0
lhand -22.1708 -3.51708 -0.000277936
lfingers 7.12502 -0 0
lthumb 4.24383 26.4203 -0.000269996
rclavicle 1.97585e-14 1.48595e-14 4.08916e-30
rhumerus -1.8634 -0.510491 -31.3546
rradius 97.5927 -0 0
rwrist -9.49333 0 0
rhand -27.1913 -33.3408 -0.0129074
rfingers 7.12502 -0 0
rthumb -0.604857 -63.3162 -0.0125642
